<svg width="21" height="20" viewBox="0 0 21 20" fill="none" xmlns="http://www.w3.org/2000/svg">
<g id="icon-phone.svg" clip-path="url(#clip0_275_473)">
<g id="Clip path group">
<mask id="mask0_275_473" style="mask-type:luminance" maskUnits="userSpaceOnUse" x="0" y="0" width="21" height="20">
<g id="a">
<path id="Vector" d="M20.5 0H0.5V20H20.5V0Z" fill="white"/>
</g>
</mask>
<g mask="url(#mask0_275_473)">
<g id="Group">
<path id="Vector_2" fill-rule="evenodd" clip-rule="evenodd" d="M11.2905 0.0777914C10.9318 0.296502 10.9165 0.812518 11.2621 1.03892C11.3181 1.07564 11.587 1.15611 11.8596 1.21775C13.7244 1.63931 15.2178 2.44197 16.5678 3.74818C17.9509 5.08627 18.9546 6.92349 19.2896 8.73033C19.3559 9.08775 19.4168 9.22685 19.5596 9.34701C19.8402 9.58314 20.2624 9.48928 20.4243 9.15475L20.5097 8.97842L20.4244 8.55033C20.0046 6.44314 19.0108 4.58303 17.4856 3.04959C15.977 1.53283 14.1821 0.54701 12.1081 0.0960726C11.573 -0.0202555 11.4556 -0.0228727 11.2905 0.0777914ZM4.09363 1.1749C3.84679 1.20478 3.55058 1.31181 3.28327 1.46775C3.07488 1.58928 1.82538 2.80072 1.35308 3.33908C0.981281 3.76291 0.729641 4.22846 0.610617 4.71267C0.501945 5.1549 0.493586 6.03971 0.592766 6.60142C1.19316 10.0019 4.12066 14.2561 7.70691 16.9396C9.22402 18.0748 11.0307 19.0576 12.5003 19.547C13.4861 19.8753 14.0617 19.9785 14.8944 19.9763C15.461 19.9749 15.5523 19.9647 15.871 19.8678C16.263 19.7486 16.6353 19.5586 16.9192 19.3327C17.023 19.2501 17.5093 18.7697 17.9996 18.2652C18.7954 17.4466 18.908 17.3145 19.0468 17.0372C19.3471 16.4372 19.3527 15.9042 19.0648 15.3124C18.9317 15.0385 18.8266 14.9234 17.4553 13.5492C16.0794 12.1706 15.9699 12.0702 15.6952 11.9368C15.1371 11.6658 14.5966 11.6676 14.0475 11.9423C13.8201 12.0561 13.6255 12.2206 12.9239 12.8919L12.0755 13.7039L11.6617 13.4781C9.94245 12.5397 7.84659 10.4258 6.92452 8.70006L6.75378 8.38049L7.50714 7.61791C8.50816 6.60471 8.68816 6.3226 8.73171 5.69869C8.75738 5.33119 8.6996 5.06822 8.51378 4.70689C8.39503 4.47599 8.22406 4.28181 7.41503 3.45908C5.58113 1.59404 5.33835 1.38326 4.85534 1.23635C4.60831 1.16123 4.36722 1.14178 4.09363 1.1749ZM3.99148 2.40201C3.84972 2.47267 3.5539 2.7442 2.91691 3.38834C1.73839 4.58006 1.69023 4.67045 1.693 5.68346C1.69452 6.22584 1.70909 6.36963 1.80323 6.77127C2.18355 8.39334 3.17777 10.3725 4.46511 12.0702C6.4264 14.6567 8.66288 16.5212 11.3788 17.8342C12.6818 18.464 13.6843 18.7735 14.6605 18.8472C15.1429 18.8836 15.4873 18.8229 15.871 18.6338C16.1599 18.4915 16.25 18.4126 17.0646 17.5895C17.6621 16.9857 17.9734 16.6417 18.0314 16.5207C18.1319 16.3115 18.1412 16.071 18.0567 15.8678C17.9817 15.6875 15.3931 13.0769 15.1792 12.9658C15.0043 12.875 14.7673 12.8691 14.572 12.9507C14.4804 12.989 14.1066 13.3302 13.5474 13.886C12.3275 15.0983 12.3014 15.1075 11.4071 14.6435C10.2391 14.0374 9.21867 13.2561 8.11679 12.124C7.0423 11.0201 6.29464 10.0257 5.83589 9.09056C5.57027 8.54912 5.51777 8.33783 5.58171 8.06799C5.62554 7.88318 5.68695 7.81162 6.57226 6.91392C7.34718 6.12814 7.52441 5.9281 7.56265 5.79611C7.69054 5.35471 7.65671 5.30678 6.15171 3.79732C4.79741 2.43908 4.63308 2.30455 4.328 2.30455C4.2505 2.30455 4.09906 2.34842 3.99148 2.40201ZM11.1813 3.67014C11.1372 3.68803 11.0449 3.76662 10.9762 3.84478C10.8689 3.96705 10.8514 4.01642 10.8514 4.19744C10.8514 4.36752 10.8711 4.43127 10.9537 4.52951C11.088 4.68912 11.1979 4.74119 11.5741 4.82361C12.578 5.04353 13.4576 5.53119 14.2131 6.28666C14.9876 7.06127 15.4423 7.90865 15.7116 9.07971C15.7996 9.46244 15.9949 9.64846 16.3085 9.64814C16.5896 9.64787 16.8666 9.38279 16.8669 9.11373C16.8671 8.91924 16.7601 8.45814 16.6116 8.01459C15.8944 5.87111 14.0857 4.22678 11.8753 3.70857C11.5337 3.62849 11.3142 3.61635 11.1813 3.67014Z" fill="white"/>
</g>
</g>
</g>
</g>
<defs>
<clipPath id="clip0_275_473">
<rect width="20" height="20" fill="white" transform="translate(0.5)"/>
</clipPath>
</defs>
</svg>
