<svg width="35" height="34" viewBox="0 0 35 34" fill="none" xmlns="http://www.w3.org/2000/svg">
<g id="icon-home-contact-us-2.svg">
<path id="Vector" fill-rule="evenodd" clip-rule="evenodd" d="M20.1558 1.52757C20.035 1.64843 20.023 1.7489 20.023 2.64167C20.023 3.7399 20.0777 3.9182 20.415 3.9182C20.7773 3.9182 20.8199 3.78366 20.8199 2.63842C20.8199 1.64219 20.8141 1.59743 20.6723 1.49815C20.4737 1.35903 20.3154 1.368 20.1558 1.52757ZM14.7481 3.74076C14.6816 3.78937 14.6275 3.91182 14.6275 4.01356C14.6275 4.28104 15.9855 5.64476 16.2518 5.64476C16.4743 5.64476 16.6688 5.38498 16.6129 5.16232C16.592 5.07905 16.2644 4.70524 15.8848 4.33171C15.1715 3.62986 15.0127 3.54725 14.7481 3.74076ZM24.9581 4.33171C24.5786 4.70524 24.2509 5.07905 24.23 5.16232C24.1737 5.38631 24.3685 5.64476 24.5936 5.64476C24.7413 5.64476 24.929 5.49216 25.5276 4.88534C26.1689 4.23542 26.2703 4.1038 26.2311 3.97225C26.1716 3.77217 26.0145 3.65257 25.8113 3.65257C25.6939 3.65257 25.4553 3.84249 24.9581 4.33171ZM19.3707 4.97857C17.8617 5.38637 16.782 6.38101 16.2495 7.8539L16.0758 8.33421L16.0533 11.0315L16.0306 13.7288L15.7027 13.7676C15.0495 13.845 14.4775 14.2391 14.1621 14.8291C14.0236 15.0883 14.0118 15.2063 13.9919 16.5249C13.9728 17.7929 13.9826 17.9554 14.0852 18.0688C14.1965 18.1918 14.3832 18.1955 20.3883 18.1955C26.2991 18.1955 26.5816 18.1901 26.6866 18.0741C26.7811 17.9697 26.7965 17.7681 26.7965 16.6375C26.7965 15.8521 26.7662 15.2214 26.7214 15.0719C26.5328 14.4425 25.8142 13.8475 25.1471 13.7684L24.8111 13.7287L24.7895 11.0314C24.7689 8.46158 24.761 8.31376 24.6222 7.90158C24.1815 6.59251 23.0788 5.48897 21.7971 5.074C21.0464 4.83102 20.0602 4.79224 19.3707 4.97857ZM19.6387 5.74112C18.4119 6.03808 17.468 6.88051 17.0196 8.07848C16.8805 8.44983 16.8731 8.5839 16.8507 11.1067L16.8272 13.7463H20.4173H24.0074V11.2925C24.0074 9.77961 23.9796 8.7039 23.935 8.48688C23.5442 6.58886 21.5091 5.28822 19.6387 5.74112ZM19.8828 6.66483C18.7402 7.0031 18.1008 7.69824 17.8992 8.8213C17.8039 9.35249 17.9053 9.56273 18.2567 9.56273C18.5469 9.56273 18.6037 9.48357 18.6968 8.94874C18.8537 8.04767 19.4396 7.5301 20.5231 7.33546C20.668 7.30943 20.839 7.24243 20.9029 7.18658C21.0543 7.05437 21.0516 6.7572 20.8977 6.61794C20.7372 6.47271 20.4937 6.48394 19.8828 6.66483ZM5.94991 7.76677C5.44442 7.89427 3.98774 8.73816 3.31564 9.29279C2.49871 9.96694 2.06886 10.6441 1.77422 11.7209C1.62401 12.2698 1.62992 14.0629 1.78498 14.9748C2.43855 18.8197 4.87459 23.8998 7.85723 27.6379C8.77164 28.784 10.3043 30.3165 11.2103 30.991C12.4886 31.9423 13.7915 32.5087 14.8791 32.5856C15.9021 32.6581 17.0389 32.3195 18.4142 31.5328C19.7524 30.7674 20.159 30.2295 20.209 29.158C20.2302 28.7055 20.2089 28.5179 20.1056 28.2475C19.8827 27.6641 18.0935 24.6964 17.7809 24.3918C17.2267 23.8516 16.3792 23.5816 15.6235 23.7045C15.2254 23.7694 14.9525 23.8817 14.2527 24.2691C13.7635 24.5398 13.3982 24.574 13.0784 24.379C12.9225 24.2839 12.41 23.4673 10.9218 20.9427C8.2983 16.4919 8.40196 16.6788 8.40196 16.3974C8.40196 16.0367 8.63458 15.7573 9.19883 15.4401C10.4507 14.7364 10.9914 13.7878 10.7868 12.6542C10.7 12.173 10.6689 12.1113 9.58565 10.2721C8.62402 8.63928 8.31908 8.26787 7.68178 7.95331C7.33096 7.78012 7.16959 7.74227 6.71889 7.72733C6.42106 7.71743 6.07502 7.73523 5.94991 7.76677ZM6.01133 8.6003C5.84698 8.65469 5.64949 8.75158 5.57252 8.81553C5.43287 8.93154 5.43719 8.93951 7.14761 11.7541C8.09091 13.3064 8.87251 14.603 8.88447 14.6356C8.91648 14.7224 9.41379 14.3902 9.62184 14.1429C9.72059 14.0256 9.8451 13.8249 9.89856 13.697C10.0217 13.4023 10.0239 12.7471 9.90281 12.4572C9.72942 12.0422 8.05811 9.2651 7.84767 9.04224C7.40354 8.57208 6.64704 8.39 6.01133 8.6003ZM4.28477 9.55768C4.08389 9.69733 3.6917 10.0502 3.41319 10.3418C2.88944 10.8903 2.72051 11.207 2.53968 11.9802C2.42659 12.4635 2.45083 14.0528 2.58325 14.842C3.5565 20.6412 8.50124 28.59 12.6362 31.0025C13.4745 31.4915 14.4822 31.8088 15.1973 31.8088C15.8679 31.8088 17.7696 31.1508 17.7631 30.921C17.762 30.8797 16.9891 29.5759 16.0458 28.0237C14.9083 26.1521 14.2995 25.21 14.2383 25.2269C14.1876 25.2409 13.9219 25.2662 13.648 25.283C13.1969 25.3108 13.1162 25.2958 12.7919 25.1247C12.595 25.0208 12.3504 24.8312 12.2484 24.7034C11.9954 24.3862 7.77947 17.2151 7.68258 16.9371C7.49791 16.4074 7.65914 15.6692 8.04855 15.2618L8.21848 15.0839L6.47299 12.1906C5.51289 10.5991 4.71004 9.29863 4.68872 9.30049C4.66741 9.30235 4.48565 9.4181 4.28477 9.55768ZM15.5475 14.6121C15.2986 14.6866 14.9842 14.9841 14.8684 15.2549C14.8048 15.4037 14.7769 15.762 14.7769 16.4337V17.3987H20.3883H25.9996L25.9985 16.386C25.9975 15.462 25.9844 15.35 25.8488 15.1077C25.7509 14.9326 25.5992 14.7911 25.4042 14.6926L25.1081 14.5432L20.424 14.5489C17.8477 14.552 15.6533 14.5805 15.5475 14.6121ZM31.4748 17.617C31.3282 17.7431 31.2825 17.8667 31.2062 18.3432C31.0976 19.0216 30.9285 19.4783 30.6061 19.964C30.3307 20.379 29.8047 20.8703 29.423 21.069C28.725 21.4325 26.1853 22.6532 26.1677 22.6336C26.1567 22.6215 26.009 22.3341 25.8394 21.995C25.5096 21.3356 25.3336 21.1755 25.0845 21.3088C24.8778 21.4194 21.1294 26.9563 21.0996 27.1949C21.0471 27.6158 20.9765 27.6034 24.8099 27.8481C27.2884 28.0063 28.3341 28.0507 28.4416 28.0023C28.7345 27.8707 28.7051 27.6624 28.2706 26.7902L27.8655 25.9769L28.1112 25.8777C28.9818 25.5266 31.3964 24.2651 31.758 23.9725C32.4962 23.3752 33.0896 22.3754 33.2721 21.4215C33.3964 20.7719 33.3963 20.4002 33.2715 19.7453C33.152 19.1187 32.5686 17.8604 32.2879 17.6242C32.0422 17.4175 31.7103 17.4145 31.4748 17.617ZM31.8546 19.1666C31.6565 19.8435 31.3327 20.4182 30.8645 20.9239C30.3766 21.451 29.9302 21.7483 28.8455 22.269C28.3577 22.5033 27.5472 22.8928 27.0444 23.1346C26.5415 23.3766 26.0606 23.5744 25.9755 23.5744C25.7798 23.5744 25.6684 23.4467 25.4043 22.9188C25.2878 22.686 25.168 22.5216 25.1381 22.5536C25.0229 22.6763 22.2057 26.8416 22.226 26.859C22.2379 26.8691 23.2786 26.9415 24.5386 27.0198C25.7987 27.0982 27.0033 27.1799 27.2156 27.2015L27.6016 27.2408L27.2654 26.571C26.8992 25.8411 26.8702 25.7064 27.0455 25.5499C27.1094 25.4929 27.9237 25.0797 28.8551 24.6318C30.7931 23.6998 31.1343 23.4993 31.5884 23.0255C32.1301 22.4606 32.5715 21.3653 32.5715 20.5862C32.5715 20.2051 32.3902 19.4656 32.1926 19.041L32.0078 18.6435L31.8546 19.1666ZM15.2884 24.6204C15.1084 24.6942 15.0475 24.7532 15.0756 24.8263C15.0971 24.8827 15.8789 26.1922 16.8127 27.7363C18.6832 30.8291 18.5221 30.6433 18.9565 30.2089C19.0704 30.0949 19.2115 29.9091 19.27 29.796C19.4086 29.528 19.4634 28.826 19.3673 28.5502C19.2367 28.1756 17.4769 25.2246 17.2407 24.9842C16.9027 24.6401 16.5522 24.5062 16.0054 24.512C15.7487 24.5148 15.4277 24.5633 15.2884 24.6204Z" fill="#0D9488"/>
</g>
</svg>
