<svg width="31" height="30" viewBox="0 0 31 30" fill="none" xmlns="http://www.w3.org/2000/svg">
<g id="icon-cta.svg">
<path id="Vector" fill-rule="evenodd" clip-rule="evenodd" d="M7.61142 1.35324C6.71578 1.67333 6.33301 2.29614 6.33301 3.43344V3.99152L4.91183 4.01025L3.49066 4.02899L3.05793 4.24297C2.53675 4.50067 2.21185 4.83262 1.95965 5.36503L1.77832 5.74774V15.4616V25.1755L1.99443 25.6128C2.32271 26.277 2.86692 26.7029 3.58301 26.8561C3.81699 26.9061 5.59716 26.919 10.4989 26.9059C16.7141 26.8894 17.1057 26.8824 17.2008 26.7873C17.3552 26.6329 17.3364 26.2453 17.1678 26.1088C17.0382 26.0037 16.8246 26.0003 10.444 26.0003C5.43749 26.0003 3.79745 25.9836 3.6183 25.9306C3.3036 25.8376 2.829 25.363 2.73601 25.0483C2.68296 24.8687 2.66635 23.0985 2.66635 17.6147V10.417H15.4997H28.333V14.3924C28.333 18.2077 28.3374 18.3732 28.4415 18.5017C28.578 18.6703 28.9656 18.6891 29.1201 18.5347C29.2151 18.4397 29.2221 18.0685 29.2387 12.2912C29.2515 7.78738 29.2385 6.06473 29.1897 5.83367C29.0371 5.1106 28.577 4.53814 27.885 4.21031L27.5023 4.02899L26.0903 4.01031L24.6782 3.99163L24.6566 3.32281C24.6381 2.75092 24.6135 2.60758 24.4863 2.33396C23.9672 1.217 22.5465 0.921718 21.5888 1.73171C21.4874 1.81747 21.3199 2.05947 21.2164 2.26956C21.042 2.62379 21.0269 2.70028 21.008 3.3259L20.9876 4.00034H19.1664H17.3451L17.3234 3.32716C17.3048 2.7507 17.2803 2.60804 17.153 2.33396C16.6339 1.217 15.2131 0.921718 14.2555 1.73171C14.1541 1.81747 13.9865 2.05947 13.8831 2.26956C13.7087 2.62379 13.6935 2.70028 13.6747 3.3259L13.6543 4.00034H11.8331H10.0118L9.99005 3.32716C9.97143 2.7507 9.94697 2.60804 9.81961 2.33396C9.43031 1.49629 8.44083 1.05687 7.61142 1.35324ZM7.79108 2.24441C7.55951 2.34954 7.31969 2.64178 7.27741 2.87049C7.25867 2.97201 7.25117 3.75576 7.26079 4.61216C7.27735 6.08072 7.28503 6.17828 7.39646 6.32736C7.62104 6.62797 7.80409 6.7217 8.16634 6.7217C8.52866 6.7217 8.71176 6.62785 8.93623 6.32724C9.04938 6.17571 9.05437 6.09676 9.05437 4.45867C9.05437 2.82059 9.04938 2.74164 8.93623 2.59011C8.87126 2.50308 8.75072 2.38156 8.66839 2.32009C8.47876 2.17852 8.023 2.13922 7.79108 2.24441ZM15.1245 2.24441C14.8929 2.34954 14.6531 2.64178 14.6108 2.87049C14.592 2.97201 14.5845 3.75576 14.5942 4.61216C14.6107 6.08072 14.6184 6.17828 14.7298 6.32736C14.9544 6.62797 15.1375 6.7217 15.4997 6.7217C15.862 6.7217 16.0451 6.62785 16.2696 6.32724C16.3828 6.17571 16.3877 6.09676 16.3877 4.45867C16.3877 2.82059 16.3828 2.74164 16.2696 2.59011C16.2046 2.50308 16.0841 2.38156 16.0018 2.32009C15.8121 2.17852 15.3564 2.13922 15.1245 2.24441ZM22.4578 2.24441C22.2262 2.34954 21.9864 2.64178 21.9441 2.87049C21.9254 2.97201 21.9179 3.75576 21.9275 4.61216C21.9441 6.08072 21.9517 6.17828 22.0632 6.32736C22.2877 6.62797 22.4708 6.7217 22.8331 6.7217C23.1954 6.7217 23.3785 6.62785 23.6029 6.32724C23.7161 6.17571 23.7211 6.09676 23.7211 4.45867C23.7211 2.82059 23.7161 2.74164 23.6029 2.59011C23.538 2.50308 23.4174 2.38156 23.3351 2.32009C23.1455 2.17852 22.6897 2.13922 22.4578 2.24441ZM3.59292 4.98971C3.48802 5.02328 3.27765 5.16273 3.12542 5.29966C2.6837 5.69675 2.66635 5.79105 2.66635 7.79179V9.50034H15.4997H28.333V7.80256C28.333 6.65661 28.3109 6.03087 28.2649 5.87744C28.2275 5.75243 28.0854 5.52619 27.9491 5.37465C27.5709 4.9539 27.4074 4.91701 25.9226 4.91701H24.6785L24.6568 5.59018C24.6381 6.16665 24.6137 6.30931 24.4863 6.58339C24.1738 7.25577 23.575 7.63762 22.8331 7.63762C22.0911 7.63762 21.4923 7.25577 21.1798 6.58339C21.0524 6.30931 21.028 6.16665 21.0093 5.59018L20.9876 4.91701H19.1664H17.3451L17.3234 5.59018C17.3048 6.16665 17.2803 6.30931 17.153 6.58339C16.8405 7.25577 16.2416 7.63762 15.4997 7.63762C14.7578 7.63762 14.1589 7.25577 13.8465 6.58339C13.7191 6.30931 13.6946 6.16665 13.676 5.59018L13.6543 4.91701H11.8331H10.0118L9.99005 5.59018C9.97143 6.16665 9.94697 6.30931 9.81961 6.58339C9.50714 7.25577 8.90827 7.63762 8.16634 7.63762C7.42442 7.63762 6.82555 7.25577 6.51308 6.58339C6.38572 6.30931 6.36126 6.16665 6.34264 5.59018L6.32092 4.91701L5.05226 4.92285C4.33015 4.92617 3.70138 4.95499 3.59292 4.98971ZM5.94228 12.805C5.83761 12.8566 5.68292 12.9893 5.59853 13.1C5.44539 13.3007 5.44499 13.304 5.44499 14.3128C5.44499 15.3229 5.44522 15.3246 5.59933 15.5266C5.87153 15.8835 6.01298 15.917 7.24968 15.917C8.48638 15.917 8.62783 15.8835 8.90002 15.5266C9.05414 15.3246 9.05437 15.3229 9.05437 14.3128C9.05437 13.3027 9.05414 13.301 8.90002 13.099C8.6272 12.7412 8.48752 12.7085 7.24103 12.71C6.33227 12.711 6.09823 12.7281 5.94228 12.805ZM11.4423 12.805C11.3376 12.8566 11.183 12.9893 11.0986 13.1C10.9454 13.3007 10.945 13.304 10.945 14.3128C10.945 15.3229 10.9453 15.3246 11.0994 15.5266C11.3716 15.8835 11.513 15.917 12.7497 15.917C13.9864 15.917 14.1279 15.8835 14.4001 15.5266C14.5542 15.3246 14.5544 15.3229 14.5544 14.3128C14.5544 13.3027 14.5542 13.301 14.4001 13.099C14.1272 12.7412 13.9876 12.7085 12.7411 12.71C11.8323 12.711 11.5983 12.7281 11.4423 12.805ZM16.9423 12.805C16.8376 12.8566 16.683 12.9893 16.5986 13.1C16.4454 13.3007 16.445 13.304 16.445 14.3128C16.445 15.3229 16.4453 15.3246 16.5994 15.5266C16.8716 15.8835 17.013 15.917 18.2497 15.917C19.4864 15.917 19.6279 15.8835 19.9001 15.5266C20.0542 15.3246 20.0544 15.3229 20.0544 14.3128C20.0544 13.3027 20.0542 13.301 19.9001 13.099C19.6272 12.7412 19.4876 12.7085 18.2411 12.71C17.3323 12.711 17.0983 12.7281 16.9423 12.805ZM22.4423 12.805C22.3376 12.8566 22.183 12.9893 22.0986 13.1C21.9454 13.3007 21.945 13.304 21.945 14.3128C21.945 15.3229 21.9453 15.3246 22.0994 15.5266C22.3716 15.8835 22.513 15.917 23.7497 15.917C24.9864 15.917 25.1279 15.8835 25.4001 15.5266C25.5542 15.3246 25.5544 15.3229 25.5544 14.3128C25.5544 13.3027 25.5542 13.301 25.4001 13.099C25.1272 12.7412 24.9876 12.7085 23.7411 12.71C22.8323 12.711 22.5983 12.7281 22.4423 12.805ZM6.33301 14.3128V15.0003H7.24968H8.16634V14.3128V13.6253H7.24968H6.33301V14.3128ZM11.8331 14.3128V15.0003H12.7497H13.6664V14.3128V13.6253H12.7497H11.8331V14.3128ZM17.3331 14.3128V15.0003H18.2497H19.1664V14.3128V13.6253H18.2497H17.3331V14.3128ZM22.8331 14.3128V15.0003H23.7497H24.6664V14.3128V13.6253H23.7497H22.8331V14.3128ZM5.94228 16.93C5.83761 16.9816 5.68292 17.1143 5.59853 17.225C5.44539 17.4257 5.44499 17.429 5.44499 18.4378C5.44499 19.4479 5.44522 19.4496 5.59933 19.6516C5.87153 20.0085 6.01298 20.042 7.24968 20.042C8.48638 20.042 8.62783 20.0085 8.90002 19.6516C9.05414 19.4496 9.05437 19.4479 9.05437 18.4378C9.05437 17.4277 9.05414 17.426 8.90002 17.224C8.6272 16.8662 8.48752 16.8335 7.24103 16.835C6.33227 16.836 6.09823 16.8531 5.94228 16.93ZM11.4423 16.93C11.3376 16.9816 11.183 17.1143 11.0986 17.225C10.9454 17.4257 10.945 17.429 10.945 18.4378C10.945 19.4479 10.9453 19.4496 11.0994 19.6516C11.3716 20.0085 11.513 20.042 12.7497 20.042C13.9864 20.042 14.1279 20.0085 14.4001 19.6516C14.5542 19.4496 14.5544 19.4479 14.5544 18.4378C14.5544 17.4277 14.5542 17.426 14.4001 17.224C14.1272 16.8662 13.9876 16.8335 12.7411 16.835C11.8323 16.836 11.5983 16.8531 11.4423 16.93ZM16.9423 16.93C16.8376 16.9816 16.683 17.1142 16.5986 17.2248C16.4487 17.421 16.4446 17.4482 16.4269 18.3591C16.4116 19.1462 16.4241 19.3247 16.5066 19.4986C16.7785 20.0717 17.6082 20.2235 17.7506 19.7261C17.8198 19.4844 17.7144 19.2441 17.5044 19.1648L17.3331 19.1002V18.4289V17.7575L18.3624 17.7396C19.5396 17.7191 19.5935 17.6992 19.5935 17.2851C19.5935 17.1084 19.5604 17.0238 19.4595 16.9421C19.3384 16.844 19.2208 16.8337 18.229 16.835C17.3314 16.836 17.098 16.8532 16.9423 16.93ZM22.4607 16.8931C21.1262 17.1011 19.9547 17.7071 19.0272 18.6693C18.2698 19.455 17.8058 20.2764 17.5237 21.331C17.3883 21.8371 17.3705 22.0076 17.3717 22.792C17.3729 23.5679 17.3923 23.7521 17.525 24.2516C17.7073 24.9381 18.1346 25.8343 18.5227 26.344C18.876 26.8083 19.5482 27.4489 19.9862 27.7386C20.4868 28.0699 21.2255 28.3969 21.8473 28.5626C22.3317 28.6916 22.5178 28.7108 23.2914 28.7108C24.0705 28.7108 24.2496 28.6921 24.7523 28.5586C25.3571 28.398 26.0488 28.0936 26.5773 27.7555C26.9924 27.49 27.7035 26.8128 28.0595 26.344C28.4532 25.8256 28.8806 24.9317 29.0593 24.2529C29.1911 23.7523 29.2102 23.5678 29.2102 22.792C29.2102 22.0129 29.1915 21.8337 29.058 21.331C28.7898 20.3213 28.3198 19.4731 27.6169 18.7304C26.5033 17.5538 25.0929 16.915 23.4919 16.8622C23.1138 16.8497 22.6497 16.8637 22.4607 16.8931ZM6.33301 18.4378V19.1253H7.24968H8.16634V18.4378V17.7503H7.24968H6.33301V18.4378ZM11.8331 18.4378V19.1253H12.7497H13.6664V18.4378V17.7503H12.7497H11.8331V18.4378ZM22.2601 17.8622C20.9598 18.1395 19.8468 18.891 19.1142 19.9862C17.7747 21.9889 18.0209 24.6106 19.7093 26.3223C21.6816 28.3217 24.8596 28.3324 26.8456 26.3462C28.0275 25.1644 28.534 23.5585 28.246 21.9067C27.8894 19.8619 26.2728 18.231 24.2161 17.8411C23.5975 17.7238 22.8722 17.7317 22.2601 17.8622ZM26.07 20.7952C26.007 20.8294 25.1503 21.6594 24.1662 22.6397L22.3768 24.422L21.5308 23.5829C20.6337 22.6933 20.4763 22.5942 20.2232 22.7601C20.0101 22.8997 19.937 23.0933 20.0209 23.2958C20.0586 23.3868 20.5601 23.9294 21.1353 24.5015C22.0809 25.4422 22.2 25.542 22.3763 25.542C22.5562 25.542 22.7271 25.3868 24.5683 23.5511C25.6665 22.4561 26.602 21.4906 26.647 21.4055C26.7656 21.1813 26.7494 21.0849 26.5614 20.8969C26.3842 20.7197 26.2573 20.6935 26.07 20.7952ZM5.94228 21.055C5.83761 21.1066 5.68292 21.2393 5.59853 21.35C5.44539 21.5507 5.44499 21.554 5.44499 22.5628C5.44499 23.5729 5.44522 23.5746 5.59933 23.7766C5.87153 24.1335 6.01298 24.167 7.24968 24.167C8.48638 24.167 8.62783 24.1335 8.90002 23.7766C9.05414 23.5746 9.05437 23.5729 9.05437 22.5628C9.05437 21.5527 9.05414 21.551 8.90002 21.349C8.6272 20.9912 8.48752 20.9585 7.24103 20.96C6.33227 20.961 6.09823 20.9781 5.94228 21.055ZM11.4423 21.055C11.3376 21.1066 11.183 21.2393 11.0986 21.35C10.9454 21.5507 10.945 21.554 10.945 22.5628C10.945 23.5729 10.9453 23.5746 11.0994 23.7766C11.3716 24.1335 11.513 24.167 12.7497 24.167C13.9864 24.167 14.1279 24.1335 14.4001 23.7766C14.5542 23.5746 14.5544 23.5729 14.5544 22.5628C14.5544 21.5527 14.5542 21.551 14.4001 21.349C14.1272 20.9912 13.9876 20.9585 12.7411 20.96C11.8323 20.961 11.5983 20.9781 11.4423 21.055ZM6.33301 22.5628V23.2503H7.24968H8.16634V22.5628V21.8753H7.24968H6.33301V22.5628ZM11.8331 22.5628V23.2503H12.7497H13.6664V22.5628V21.8753H12.7497H11.8331V22.5628Z" fill="#0D9488"/>
</g>
</svg>
