<svg width="35" height="34" viewBox="0 0 35 34" fill="none" xmlns="http://www.w3.org/2000/svg">
<g id="icon-home-contact-us-1.svg">
<path id="Vector" fill-rule="evenodd" clip-rule="evenodd" d="M16.7695 1.03293C16.1815 1.15924 15.3533 1.58205 14.9003 1.98726C14.5555 2.29565 14.4869 2.32819 14.0512 2.39001C12.2514 2.64528 11.0125 3.74888 10.5468 5.5117C10.2456 6.65137 10.5558 8.49972 11.2756 9.8552L11.5029 10.2831L11.3297 10.4112C11.2345 10.4815 11.0684 10.7004 10.9606 10.8974C10.7909 11.2078 10.7612 11.3405 10.7393 11.8867C10.7185 12.4057 10.7385 12.5824 10.8518 12.8828C11.0388 13.3789 11.323 13.7032 11.7566 13.9154C12.0786 14.0729 12.1278 14.1245 12.1888 14.3678C12.4815 15.5366 13.0228 16.5533 13.7646 17.3276C14.1272 17.7061 14.246 17.8758 14.246 18.0155C14.246 18.2922 14.0549 19.165 13.9085 19.5562L13.7799 19.9L12.2099 20.3746C11.3463 20.6357 10.5847 20.8992 10.5172 20.9603C10.4497 21.0213 10.3945 21.137 10.3945 21.2171C10.3945 21.353 10.3548 21.3657 9.81341 21.4043C7.12794 21.5958 4.94224 23.4654 4.27008 26.1459C4.13036 26.7029 4.12385 26.8616 4.12153 29.7646C4.11914 32.7313 4.12213 32.8037 4.25421 32.936C4.38934 33.0712 4.39665 33.0713 17.5 33.0713C30.603 33.0713 30.6106 33.0712 30.7457 32.936C30.8777 32.8037 30.8807 32.7312 30.8784 29.7646C30.876 26.8616 30.8695 26.7029 30.7298 26.1459C30.2326 24.1628 28.9146 22.6091 27.0829 21.8466C26.4835 21.5971 25.5292 21.3849 25.0006 21.3837C24.6414 21.3828 24.63 21.377 24.5496 21.1548C24.4512 20.8824 24.4314 20.874 22.5804 20.3216C21.7426 20.0715 21.2211 19.8822 21.1671 19.8083C21.0405 19.6351 20.8245 18.8948 20.7371 18.3338L20.6602 17.8415L20.9627 17.5701C21.708 16.9015 22.3743 15.7709 22.7003 14.6219C22.8569 14.0701 22.8569 14.07 23.187 13.9171C23.5829 13.7337 23.9625 13.3111 24.1038 12.8964C24.1691 12.7047 24.2067 12.3602 24.2063 11.9579C24.2058 11.4301 24.1791 11.2651 24.0489 10.9855C23.8942 10.6533 23.4665 10.2265 23.2883 10.2265C23.2272 10.2265 23.2125 10.1878 23.2442 10.1103C23.4225 9.67405 23.7528 8.61002 23.8524 8.15122C24.0189 7.3837 24.0178 5.71809 23.8502 5.11327C23.5945 4.19002 23.2218 3.51759 22.6233 2.89948C21.7591 2.00705 20.455 1.32612 19.0322 1.0245C18.4808 0.907626 17.3329 0.911942 16.7695 1.03293ZM16.915 1.99383C16.2574 2.16609 15.8587 2.39632 15.3498 2.89782L14.9211 3.3203H14.4979C13.0355 3.3203 11.8689 4.24009 11.4958 5.68728C11.3054 6.42539 11.3976 7.55881 11.7285 8.54906L11.8785 8.99803L11.9651 8.48896C12.1199 7.5778 12.4911 6.74593 13.0765 5.99766C13.5018 5.45406 14.2598 4.84924 14.5169 4.84831C14.6232 4.84791 14.8624 4.98271 15.1478 5.20378C15.7375 5.66065 16.2227 5.93166 16.8816 6.17218C17.6516 6.45315 18.1407 6.52659 19.2929 6.53423C20.3079 6.54093 20.3285 6.54399 20.7732 6.75463C21.0212 6.8721 21.3576 7.07756 21.5207 7.21124C21.8488 7.48012 22.3378 8.17367 22.5193 8.62755L22.6367 8.92107L22.724 8.66892C23.0275 7.79236 23.1234 6.18247 22.9215 5.35319C22.5219 3.71203 21.1838 2.56234 19.0403 2.0186C18.2756 1.82463 17.5913 1.81666 16.915 1.99383ZM14.1055 6.27113C13.4136 6.97483 13.0048 7.885 12.8465 9.0734C12.8034 9.3972 12.7857 9.89113 12.8073 10.171C12.8417 10.6177 12.83 10.7009 12.7113 10.8516C12.6367 10.9466 12.5086 11.0234 12.425 11.0234C11.8992 11.0234 11.6877 11.3114 11.692 12.0216C11.6962 12.7508 11.869 12.9999 12.4761 13.1527C12.8678 13.2514 12.97 13.3748 13.0543 13.8511C13.2551 14.9848 13.7386 15.9657 14.4433 16.6686C15.2948 17.518 16.2184 17.8918 17.4667 17.8926C18.2896 17.893 18.8079 17.7804 19.46 17.4594C20.693 16.8524 21.5983 15.5323 21.8858 13.9222C21.983 13.3783 22.09 13.2257 22.4102 13.1745C22.7781 13.1157 23.0704 12.9173 23.1817 12.651C23.2952 12.3794 23.307 11.7263 23.2039 11.4304C23.1145 11.1737 22.9605 11.0846 22.5598 11.0576C22.159 11.0306 22.0472 10.8874 21.9898 10.3271C21.8593 9.05322 21.2686 8.04318 20.424 7.64998C20.087 7.49307 19.999 7.48198 19.1955 7.49473C17.5416 7.52109 16.1327 7.10047 14.8667 6.20239L14.4579 5.91253L14.1055 6.27113ZM15.1757 18.4234C15.1757 18.6429 14.9243 19.589 14.7623 19.9794L14.5592 20.4687L14.7794 21.9517L14.9997 23.4348L15.3699 23.4874C15.8519 23.5561 19.0833 23.5558 19.5662 23.4871L19.9391 23.4341L20.043 22.7571C20.1002 22.3847 20.1993 21.7196 20.2632 21.279L20.3795 20.4779L20.195 20.0173C20.0935 19.7639 19.9561 19.3075 19.8894 19.003C19.8228 18.6985 19.7586 18.44 19.7465 18.4284C19.7345 18.417 19.4556 18.5008 19.1269 18.6149C18.5569 18.8127 18.4817 18.8223 17.5 18.8217C16.5784 18.8211 16.415 18.8032 15.9394 18.6506C15.6472 18.5569 15.3559 18.4578 15.2919 18.4303C15.228 18.4028 15.1757 18.3997 15.1757 18.4234ZM12.5859 21.2582C12.0198 21.4319 11.549 21.5758 11.5397 21.578C11.5303 21.5802 11.7918 22.1196 12.1207 22.7766C12.4496 23.4337 12.7187 24.0455 12.7187 24.1363C12.7187 24.2424 12.5753 24.4679 12.3167 24.7684C12.0691 25.056 11.9332 25.2672 11.963 25.3179C12.2282 25.7702 15.0106 30.2644 15.0564 30.3144C15.095 30.3565 15.105 30.3444 15.0838 30.2812C15.0655 30.2264 14.7479 28.1496 14.3781 25.666C14.0083 23.1824 13.6853 21.1036 13.6604 21.0464C13.6214 20.9565 13.4751 20.9854 12.5859 21.2582ZM21.2593 21.1394C21.1437 21.7717 19.8919 30.1857 19.9068 30.2304C19.925 30.2848 22.9651 25.4052 22.9949 25.2737C23.004 25.2338 22.8322 24.9978 22.6131 24.7491C22.394 24.5004 22.2148 24.2387 22.2148 24.1674C22.2148 24.0962 22.4822 23.4838 22.8091 22.8065C23.1902 22.017 23.3748 21.5661 23.3237 21.5496C23.28 21.5355 22.8855 21.4159 22.4472 21.2839C22.0089 21.1519 21.571 21.0181 21.474 20.9866C21.3121 20.934 21.2947 20.9464 21.2593 21.1394ZM9.74906 22.3604C9.49971 22.3914 9.13155 22.7735 8.8468 23.2967C8.62288 23.7081 8.42293 24.47 8.36177 25.1448C8.31608 25.6487 8.31708 25.6532 8.46456 25.6146C8.70383 25.552 9.38522 25.6903 9.75085 25.8756C10.1868 26.0965 10.7906 26.6742 11.0135 27.0836C11.2596 27.5359 11.4114 28.2347 11.3688 28.72C11.3402 29.0458 11.3015 29.1456 11.1542 29.2721C10.9708 29.43 10.8909 29.4332 10.2428 29.309C9.80179 29.2245 9.75145 28.6375 10.1682 28.4387C10.4234 28.3171 10.438 28.2413 10.2899 27.8065C10.0638 27.1432 9.30819 26.5641 8.6679 26.5635C8.19821 26.5631 7.90768 26.6752 7.55334 26.9938C7.09029 27.4102 6.91557 27.8382 6.95787 28.4524C6.9756 28.7095 7.0272 28.9987 7.07249 29.0949C7.14188 29.2422 7.18259 29.2622 7.33035 29.2217C7.75667 29.1046 8.13373 29.5126 7.93172 29.8724C7.80156 30.1043 7.062 30.3923 6.81749 30.3064C6.49622 30.1934 6.07872 29.3646 5.9813 28.6466C5.86051 27.7559 6.34952 26.649 7.10284 26.108L7.38745 25.9037L7.42524 25.1539C7.46542 24.3576 7.59232 23.764 7.84586 23.1867L8.00151 22.8325L7.68721 23.0149C6.54064 23.6804 5.71886 24.7185 5.27341 26.0644C5.124 26.5158 5.11888 26.6107 5.09684 29.3349L5.07413 32.1406H10.0624C14.0357 32.1406 15.0405 32.1237 15.0004 32.0576C14.9727 32.012 14.0296 30.4864 12.9046 28.6676C11.4225 26.271 10.8593 25.3061 10.8593 25.1631C10.8593 25.0252 10.9435 24.8712 11.1389 24.6518C11.2927 24.4791 11.4781 24.2697 11.5509 24.1864L11.6833 24.0349L11.2567 23.1737L10.8302 22.3125L10.3965 22.3231C10.158 22.329 9.86667 22.3458 9.74906 22.3604ZM23.7056 23.1824L23.2697 24.0523L23.683 24.5173C23.975 24.8458 24.0963 25.0355 24.0963 25.1633C24.0963 25.3202 22.7925 27.4887 20.2108 31.626L19.8896 32.1406H24.9077H29.9258L29.903 29.3349C29.881 26.604 29.8762 26.5169 29.7255 26.0644C29.3644 24.981 28.7844 24.1152 28.0042 23.4952C27.5474 23.1322 26.9648 22.7905 26.621 22.684C26.4793 22.6402 26.4795 22.6427 26.6477 23.0572C26.8896 23.6531 27.0478 24.3021 27.142 25.0845L27.224 25.7648L27.4397 25.836C27.5584 25.8752 27.8043 26.041 27.9861 26.2044C28.9372 27.0596 28.7303 28.5739 27.584 29.1467C26.6837 29.5966 25.6475 29.2838 25.1699 28.4178C24.9948 28.1003 24.9708 27.9923 24.9718 27.5254C24.9727 27.1102 25.0041 26.9361 25.1156 26.7285C25.3025 26.3805 25.7041 25.9977 26.021 25.8657L26.2745 25.7601L26.2297 25.3811C26.0809 24.1201 25.6896 22.9715 25.2464 22.4951C25.0922 22.3293 25.0337 22.3125 24.6091 22.3125H24.1415L23.7056 23.1824ZM15.1757 24.5169C15.1757 24.5423 15.4297 26.2415 15.7402 28.293C16.0506 30.3443 16.3046 32.0492 16.3046 32.0817C16.3046 32.1141 16.8243 32.1406 17.4594 32.1406H18.6141L18.653 31.9248C18.7279 31.5086 19.7578 24.6387 19.7578 24.5552C19.7578 24.4884 19.2763 24.4707 17.4667 24.4707C16.2067 24.4707 15.1757 24.4915 15.1757 24.5169ZM26.1646 26.9158C25.8759 27.2045 25.8112 27.5329 25.9765 27.8702C26.1265 28.1764 26.4769 28.4219 26.7636 28.4219C27.0482 28.4219 27.4003 28.177 27.5476 27.8768C27.7101 27.5456 27.6411 27.1951 27.3576 26.9111C27.1649 26.7181 27.1022 26.6953 26.7636 26.6953C26.4235 26.6953 26.3628 26.7176 26.1646 26.9158Z" fill="#0D9488"/>
</g>
</svg>
