<svg width="30" height="30" viewBox="0 0 30 30" fill="none" xmlns="http://www.w3.org/2000/svg">
<g id="icon-why-us-5.svg">
<g id="Clip path group">
<mask id="mask0_224_615" style="mask-type:luminance" maskUnits="userSpaceOnUse" x="0" y="0" width="30" height="30">
<g id="a">
<path id="Vector" d="M29.166 0.36084H0.133789V29.3931H29.166V0.36084Z" fill="white"/>
</g>
</mask>
<g mask="url(#mask0_224_615)">
<g id="Group">
<path id="Vector_2" fill-rule="evenodd" clip-rule="evenodd" d="M18.8954 1.89581C16.824 2.20003 14.8602 3.43446 13.7146 5.15218C12.8436 6.45824 12.4223 7.83614 12.423 9.37661C12.4236 11.007 12.9028 12.5095 13.8352 13.8046C14.4773 14.6964 15.6337 15.6826 16.6066 16.1684C18.3254 17.0264 20.5084 17.183 22.315 16.5777C24.1956 15.9477 25.7608 14.6229 26.663 12.8978C27.3016 11.6765 27.5554 10.5316 27.5059 9.09462C27.4717 8.101 27.3323 7.42344 26.9854 6.56303C26.8182 6.14824 26.7976 6.05303 26.859 5.97847C27.1587 5.6146 27.7243 4.97057 28.0511 4.6211C28.529 4.10974 28.6632 3.8285 28.6632 3.33767C28.6632 2.89685 28.5316 2.57273 28.2328 2.27822C27.9001 1.95019 27.6742 1.86337 27.1535 1.86337C26.5227 1.86337 26.3377 1.98245 25.5953 2.86617C25.2727 3.25023 24.9909 3.58523 24.969 3.61058C24.947 3.63598 24.7606 3.5291 24.5544 3.37311C23.1884 2.33912 21.6363 1.82601 19.9238 1.84217C19.5339 1.84585 19.0711 1.87001 18.8954 1.89581ZM19.3283 2.778C17.7956 2.94369 16.3892 3.61444 15.3011 4.69855C14.2893 5.70669 13.6562 6.92854 13.4331 8.304C12.7762 12.355 15.882 16.0109 19.9805 16.0109C24.3154 16.0109 27.484 11.9019 26.3848 7.70561C26.3205 7.45985 26.2313 7.17135 26.1866 7.06452L26.1054 6.8702L24.3666 8.95977C21.1413 12.8354 20.9685 13.0037 20.2138 13.005C19.5693 13.0063 19.5995 13.0287 17.6348 11.082C16.3737 9.83248 15.7954 9.22027 15.7207 9.05572C15.4641 8.49095 15.5502 7.89307 15.954 7.43433C16.2607 7.08594 16.6171 6.91845 17.0567 6.91623C17.6736 6.91306 17.7475 6.96194 18.9965 8.19904L20.1389 9.33062L20.5644 8.82907C22.5026 6.54522 24.2893 4.40755 24.2896 4.37222C24.2902 4.29109 23.5234 3.7626 23.0408 3.5117C22.4754 3.21774 21.8365 2.99348 21.2329 2.87723C20.7851 2.79099 19.721 2.73553 19.3283 2.778ZM26.8862 2.8389C26.8015 2.89493 25.3387 4.59932 23.6355 6.62648C21.9322 8.65364 20.4975 10.3441 20.4471 10.3831C20.3969 10.4221 20.2666 10.454 20.1578 10.454C19.9755 10.454 19.8565 10.3512 18.6479 9.14979C17.3487 7.85825 17.3336 7.84561 17.0945 7.84561C16.753 7.84561 16.5215 8.07787 16.5215 8.42053V8.66395L18.2218 10.367L19.9221 12.07H20.175C20.3866 12.07 20.4616 12.0377 20.6352 11.8716C20.9894 11.5327 22.1531 10.1756 24.0632 7.87396C25.0726 6.65767 26.2064 5.31084 26.5827 4.88097C27.7612 3.53483 27.7488 3.55122 27.7488 3.33642C27.7488 2.91455 27.2267 2.61345 26.8862 2.8389ZM10.2075 15.5365C9.56927 15.6734 8.94196 15.9843 6.80786 17.2215C5.69114 17.8688 4.74374 18.4115 4.70246 18.4273C4.65494 18.4455 4.55372 18.3247 4.42671 18.0983C4.08773 17.4938 3.75102 17.2585 3.2251 17.2585C3.01371 17.2585 2.82863 17.2988 2.6694 17.3795C2.05105 17.6933 1.10813 18.257 0.942891 18.4116C0.692999 18.6456 0.567286 18.995 0.598417 19.3692C0.620815 19.6389 0.839464 20.0503 2.82165 23.5525C4.0308 25.6888 5.07324 27.494 5.13822 27.5637C5.35993 27.8023 5.72108 27.9343 6.08086 27.9083C6.36154 27.8879 6.52139 27.8211 7.21488 27.4338C7.65893 27.1859 8.11085 26.9104 8.21921 26.8217C8.50103 26.5908 8.63972 26.2863 8.63972 25.8989C8.63972 25.6197 8.60174 25.5053 8.36131 25.0593L8.08295 24.5428L8.50733 24.2954L8.93175 24.048L10.1041 24.3647C13.2921 25.226 15.1207 25.7132 15.5576 25.8178C16.4435 26.03 17.3624 25.9526 18.123 25.6018C18.6814 25.3443 27.8625 19.6707 28.135 19.4146C28.2695 19.2884 28.448 19.0387 28.5319 18.8597C28.6658 18.5741 28.6844 18.4647 28.6841 17.9672C28.6835 17.2448 28.5585 16.936 28.0925 16.5065C27.3793 15.849 26.4077 15.7899 25.1067 16.3248C24.6115 16.5283 24.6054 16.5318 21.313 18.4487C18.9015 19.8527 18.8208 19.8975 18.5048 20.009L18.2896 20.0849L18.4115 19.82C18.5838 19.4453 18.5838 18.7006 18.4114 18.3258C18.2611 17.9991 17.8811 17.5792 17.5716 17.3978C17.4406 17.321 17.0064 17.1867 16.576 17.09C15.6473 16.8811 14.6138 16.5624 13.0202 15.9933C11.3999 15.4147 11.0443 15.3569 10.2075 15.5365ZM10.2158 16.4915C9.75688 16.6178 9.24045 16.8882 7.15019 18.0965C5.61629 18.9832 5.12983 19.29 5.1545 19.3552C5.20826 19.4976 7.51609 23.5754 7.5843 23.6485C7.6325 23.7003 7.77466 23.6434 8.18609 23.408C8.48238 23.2384 8.78036 23.0995 8.84828 23.0994C8.91622 23.0991 10.4963 23.5076 12.3597 24.0073C14.2231 24.5068 15.9244 24.9448 16.1404 24.9805C16.6293 25.0613 17.2516 24.9769 17.7076 24.7681C17.8798 24.6893 20.1607 23.3065 22.7762 21.6953C27.9401 18.5142 27.6905 18.6923 27.7811 18.1259C27.8542 17.6684 27.5873 17.1572 27.1884 16.9905C26.7512 16.8079 25.8578 16.9518 25.122 17.3233C24.9918 17.3891 23.6373 18.1704 22.112 19.0594C19.365 20.6605 18.9376 20.8851 18.4135 21.0025C17.9949 21.0964 17.1237 21.072 16.4365 20.9472C15.6806 20.81 12.9158 20.0611 12.734 19.9444C12.5476 19.8246 12.4748 19.6003 12.5575 19.4005C12.7044 19.046 12.8502 19.0493 14.2486 19.4396C16.2126 19.988 16.5598 20.0591 16.9006 19.9828C17.4193 19.8667 17.7338 19.3469 17.5956 18.8339C17.5123 18.5243 17.1833 18.1935 16.8881 18.1225C15.1216 17.6976 14.6696 17.5598 12.212 16.6971C11.4752 16.4384 11.3428 16.4089 10.9363 16.4132C10.6867 16.4158 10.3625 16.4511 10.2158 16.4915ZM2.3488 18.6137C1.92171 18.8615 1.56311 19.1084 1.53334 19.1752C1.48884 19.2749 1.83172 19.9155 3.63949 23.1096C4.97339 25.4665 5.84231 26.9444 5.91257 26.9757C6.00199 27.0156 6.17539 26.9444 6.72343 26.6425C7.59814 26.1607 7.73247 26.0661 7.73247 25.9318C7.73247 25.8278 3.60473 18.4671 3.43297 18.2649C3.38665 18.2103 3.29524 18.167 3.22992 18.1685C3.1646 18.1701 2.76807 18.3704 2.3488 18.6137ZM2.65874 19.3139C2.57114 19.39 2.49844 19.5263 2.47848 19.6515C2.44962 19.8329 2.46856 19.885 2.6178 20.0343C2.9041 20.3206 3.30505 20.2541 3.45486 19.8955C3.6633 19.3967 3.06576 18.9602 2.65874 19.3139Z" fill="#0D9488"/>
</g>
</g>
</g>
</g>
</svg>
