<svg width="21" height="20" viewBox="0 0 21 20" fill="none" xmlns="http://www.w3.org/2000/svg">
<g id="icon-mail.svg">
<g id="Clip path group">
<mask id="mask0_224_600" style="mask-type:luminance" maskUnits="userSpaceOnUse" x="1" y="0" width="20" height="20">
<g id="a">
<path id="Vector" d="M20.1218 0.730469H1.07422V19.7781H20.1218V0.730469Z" fill="white"/>
</g>
</mask>
<g mask="url(#mask0_224_600)">
<g id="Group">
<path id="Vector_2" fill-rule="evenodd" clip-rule="evenodd" d="M3.45954 3.55937C2.42426 3.8305 1.65919 4.6388 1.46192 5.66986C1.38379 6.07812 1.38379 14.4301 1.46192 14.8384C1.6451 15.7958 2.33981 16.5821 3.28796 16.905L3.58557 17.0063L10.4866 17.0167C18.2387 17.0283 17.6534 17.0487 18.2805 16.746C19.1008 16.3501 19.6542 15.5836 19.7859 14.6608C19.8161 14.4497 19.8249 13.1286 19.8165 10.0496C19.8036 5.25029 19.8222 5.60088 19.5494 5.02719C19.1982 4.28872 18.5563 3.76146 17.7609 3.55799C17.4734 3.48448 17.3598 3.48333 10.6016 3.48533C3.93454 3.48734 3.72638 3.4895 3.45954 3.55937ZM3.59532 4.56C3.03747 4.73831 2.58345 5.22886 2.45317 5.79401C2.42896 5.89891 2.41518 7.49274 2.41459 10.2556C2.41381 14.0223 2.42084 14.5814 2.47144 14.7757C2.57597 15.1772 2.83048 15.5202 3.20317 15.7619C3.63743 16.0437 3.0807 16.0251 10.7099 16.0128L17.5364 16.0019L17.7426 15.9184C18.1604 15.7493 18.5331 15.3641 18.7151 14.9133L18.8014 14.6998L18.8114 10.366C18.8182 7.43775 18.8087 5.97094 18.7823 5.84348C18.6584 5.24683 18.2252 4.76286 17.6379 4.56503C17.409 4.4879 17.3965 4.48775 10.6087 4.48976C4.11902 4.49166 3.79904 4.49486 3.59532 4.56ZM3.95759 6.54743C3.76396 6.63541 3.69718 6.74233 3.69718 6.96454C3.69718 7.16015 3.70205 7.16911 3.93899 7.41056C4.24487 7.72224 5.13647 8.54147 6.18974 9.47864C6.63989 9.87917 7.03725 10.2395 7.07281 10.2794C7.1355 10.3497 7.09357 10.3956 5.64621 11.8375C4.82609 12.6545 4.13993 13.3513 4.12144 13.3858C4.10295 13.4204 4.0878 13.51 4.0878 13.585C4.0878 13.6905 4.11645 13.75 4.2143 13.8478C4.35618 13.9897 4.47334 14.0077 4.65232 13.9152C4.71522 13.8827 5.22917 13.4014 5.79443 12.8455C6.35968 12.2898 7.03491 11.6275 7.29491 11.3736L7.7676 10.9121L7.92736 11.0464C8.01518 11.1202 8.26284 11.3329 8.47769 11.519C9.08025 12.0411 9.55365 12.2505 10.3256 12.3366C11.0199 12.4141 11.7358 12.2201 12.3839 11.7787C12.4965 11.7021 12.7686 11.4784 12.9888 11.2816C13.2089 11.0848 13.4015 10.924 13.4166 10.9242C13.4318 10.9245 14.1222 11.5881 14.9509 12.3989C15.8237 13.2528 16.5098 13.8951 16.5817 13.9255C16.9045 14.0621 17.2366 13.6877 17.0696 13.3756C17.048 13.3354 16.3615 12.6391 15.5438 11.8282C14.0919 10.3885 14.0587 10.3522 14.1227 10.2801C14.1587 10.2396 14.5565 9.87898 15.0067 9.47897C15.9451 8.64501 16.9987 7.6754 17.2881 7.37945C17.4419 7.22221 17.4908 7.1437 17.5062 7.02883C17.5288 6.86037 17.4551 6.68392 17.3238 6.59196C17.1865 6.49579 16.9204 6.51696 16.7672 6.63619C16.6948 6.69247 15.7166 7.56745 14.5935 8.58057C11.9958 10.9238 11.8991 11.0073 11.6055 11.1613C11.2273 11.3595 10.947 11.4185 10.4866 11.397C9.87203 11.3681 9.55979 11.2247 8.9548 10.6936C8.78446 10.5439 7.72635 9.59288 6.60339 8.58005C5.48048 7.56718 4.50113 6.69274 4.42705 6.63679C4.26057 6.51101 4.10351 6.48109 3.95759 6.54743Z" fill="white"/>
</g>
</g>
</g>
</g>
</svg>
