<svg width="30" height="30" viewBox="0 0 30 30" fill="none" xmlns="http://www.w3.org/2000/svg">
<g id="icon-service-2.svg" clip-path="url(#clip0_224_357)">
<g id="Clip path group">
<mask id="mask0_224_357" style="mask-type:luminance" maskUnits="userSpaceOnUse" x="0" y="0" width="30" height="30">
<g id="a">
<path id="Vector" d="M29.376 0.227295H0.34375V29.2596H29.376V0.227295Z" fill="white"/>
</g>
</mask>
<g mask="url(#mask0_224_357)">
<g id="Group">
<path id="Vector_2" fill-rule="evenodd" clip-rule="evenodd" d="M7.68687 0.307556C7.14348 0.549057 6.93441 1.28093 7.11399 2.31327C7.2684 3.20092 7.57709 3.82075 8.18173 4.45718L8.50998 4.80273L8.45379 5.33609C8.37202 6.11271 8.3846 7.16892 8.48106 7.62431C8.56044 7.99889 8.55915 8.02402 8.45447 8.13543C8.2277 8.37677 8.15927 8.66301 8.14963 9.40951C8.13834 10.2914 8.20979 10.568 8.54519 10.9411C8.86012 11.2914 9.12748 11.3957 9.81935 11.4378L10.3759 11.4716L10.4138 11.7326C10.5232 12.4834 10.9294 13.3654 11.4511 13.9844C11.7303 14.3157 11.9645 14.5161 12.5793 14.9492C12.6753 15.0168 12.6677 15.0548 12.2442 16.6282L12.1262 17.0668L10.8137 17.4882L9.50139 17.9093L8.56578 17.9356C7.45444 17.9665 7.01306 18.0669 6.15588 18.4836C4.93595 19.0764 4.03992 19.9903 3.45536 21.2376C2.97893 22.2542 2.98631 22.1856 2.96539 25.8218C2.94831 28.794 2.95438 29.0549 3.04336 29.1531C3.13714 29.2568 3.46109 29.2598 14.8598 29.2598C26.2587 29.2598 26.5826 29.2568 26.6764 29.1531C26.7654 29.0549 26.7715 28.7941 26.7542 25.8218C26.7329 22.1371 26.7445 22.2367 26.2031 21.1228C25.6102 19.9029 24.6964 19.0069 23.449 18.4222C22.6774 18.0607 22.2272 17.9651 21.154 17.9352L20.2184 17.909L18.9001 17.4852C18.1749 17.252 17.5816 17.0527 17.5816 17.0421C17.5816 17.0316 17.4669 16.593 17.3266 16.0676C17.1863 15.5421 17.0715 15.0867 17.0715 15.0555C17.0715 15.0243 17.1897 14.9241 17.3342 14.8329C17.9876 14.42 18.6167 13.6824 18.9656 12.92C19.1613 12.4924 19.3395 11.8705 19.3395 11.6154C19.3395 11.4727 19.3451 11.4709 19.9095 11.4399C20.3697 11.4145 20.5388 11.3795 20.7873 11.2579C21.1684 11.0715 21.4142 10.7824 21.531 10.3833C21.652 9.96959 21.6159 8.75288 21.4726 8.42117C21.3594 8.15874 21.1363 7.90754 20.9129 7.79079L20.7567 7.70925L20.8922 7.44149C21.2132 6.80693 21.4844 5.55497 21.5337 4.48026C21.5619 3.8635 21.5501 3.71255 21.4427 3.31784C21.0188 1.76132 19.9012 0.635927 18.5372 0.392158C18.0649 0.307783 16.3723 0.384787 14.6047 0.571059C12.2665 0.817492 10.9494 0.781428 9.20205 0.423005C8.16658 0.21065 7.94323 0.193582 7.68687 0.307556ZM7.83277 1.05735C7.69078 1.23783 7.68001 1.6237 7.7984 2.28821C8.02187 3.54171 8.81652 4.39384 10.3803 5.05682C10.6922 5.18906 10.6922 5.18906 14.0093 5.21741L17.3265 5.24577L17.6667 5.40493C18.2614 5.68312 18.5355 6.02884 18.9522 7.02671C19.1024 7.38638 19.2873 7.7427 19.3631 7.81857C19.4891 7.94457 19.5161 7.95025 19.6757 7.88413C20.2099 7.66287 20.592 6.7695 20.7862 5.28744C20.9097 4.34559 20.8965 3.82947 20.7363 3.3247C20.3662 2.1595 19.5373 1.31127 18.5456 1.08287C18.0454 0.9677 16.8558 1.02207 14.2719 1.27838C11.9934 1.5044 10.6687 1.45377 8.97467 1.07601C8.05006 0.869772 7.98116 0.868639 7.83277 1.05735ZM9.10287 5.69877C9.04067 6.44561 9.09708 7.46928 9.21628 7.75706C9.37125 8.13124 9.67598 8.24289 10.1688 8.106L10.3826 8.04663L10.3673 6.91324L10.3519 5.77985L9.89803 5.59409C9.64836 5.49191 9.37647 5.36399 9.2938 5.30984L9.14347 5.21134L9.10287 5.69877ZM11.0731 8.88664L11.0909 11.8801L11.2419 12.296C11.7494 13.6937 12.9034 14.6277 14.4118 14.8617C15.9052 15.0934 17.5169 14.2436 18.2453 12.8404C18.6511 12.0586 18.671 11.9316 18.7005 9.93156L18.7266 8.15302L18.5864 7.89019C18.5093 7.7456 18.3908 7.45799 18.3234 7.25108C18.1335 6.66954 17.8331 6.29188 17.3549 6.03343C17.1684 5.93267 16.9724 5.92519 14.1058 5.9097L11.0552 5.8932L11.0731 8.88664ZM0.434248 6.64441C0.384463 6.71552 0.34375 6.81452 0.34375 6.86448C0.34375 6.91443 0.727916 7.44921 1.19743 8.05282C1.81674 8.8491 2.03029 9.16195 1.97534 9.19273C1.93367 9.21603 1.63246 9.30245 1.30595 9.38479C0.615474 9.55892 0.457157 9.64398 0.457157 9.84079C0.457157 10.0146 2.44009 12.6194 2.61462 12.6748C2.75677 12.7199 3.00616 12.5687 3.01551 12.4316C3.02958 12.2271 2.9795 12.1485 2.21049 11.1676C1.77631 10.6138 1.42112 10.1366 1.42112 10.1072C1.42112 10.0779 1.74234 9.96921 2.13491 9.86576C2.70727 9.71498 2.86633 9.65084 2.9376 9.54208C3.01835 9.41881 3.01829 9.38995 2.93658 9.22567C2.88713 9.12628 2.40441 8.48354 1.86392 7.79743C0.992662 6.69142 0.861 6.54796 0.702967 6.53259C0.569601 6.51961 0.50201 6.54774 0.434248 6.64441ZM28.3405 7.18786C26.6361 9.34243 26.6437 9.33086 26.783 9.54327C26.8533 9.65056 27.0153 9.71576 27.5849 9.86576C27.9774 9.96921 28.2987 10.0779 28.2987 10.1072C28.2987 10.1366 27.946 10.6113 27.5152 11.1621C27.0843 11.7129 26.7144 12.2101 26.6931 12.2669C26.6148 12.4773 26.8886 12.7435 27.1108 12.6731C27.1724 12.6534 27.6817 12.0481 28.2426 11.3279C29.3259 9.93708 29.403 9.7894 29.135 9.618C29.0648 9.57316 28.7395 9.46723 28.4121 9.38263C28.0846 9.29803 27.7833 9.21116 27.7427 9.18961C27.6907 9.16205 27.9234 8.82297 28.5223 8.05282C28.9919 7.44921 29.376 6.91443 29.376 6.86448C29.376 6.69137 29.2064 6.5216 29.0335 6.5216C28.8894 6.5216 28.7983 6.60915 28.3405 7.18786ZM20.1421 8.39395C19.9897 8.52096 19.5925 8.6418 19.4753 8.59683C19.4093 8.57149 19.3961 8.75033 19.3961 9.67753V10.7886L19.8639 10.763C20.724 10.7162 20.8876 10.5391 20.919 9.62129C20.9438 8.8956 20.8815 8.63001 20.6382 8.42536C20.4322 8.25196 20.321 8.24493 20.1421 8.39395ZM8.89211 8.71977C8.85253 8.81129 8.82599 9.14845 8.82729 9.5427C8.82928 10.1183 8.84515 10.2315 8.94218 10.3614C9.1784 10.6778 9.31574 10.735 9.85283 10.7407L10.3519 10.746L10.3674 9.77653L10.3829 8.80698L9.88545 8.81253C9.46611 8.81724 9.35429 8.79819 9.17359 8.69142L8.95924 8.56468L8.89211 8.71977ZM4.77928 10.7492C4.52666 10.9262 4.60117 11.0789 5.49726 12.2215C5.96149 12.8134 6.32508 13.3145 6.30528 13.335C6.28549 13.3555 5.9548 13.4551 5.57046 13.556C5.01749 13.7014 4.8535 13.7675 4.78455 13.8727C4.73663 13.9458 4.70998 14.0377 4.72535 14.0769C4.76805 14.1861 6.69234 16.6902 6.7956 16.7708C7.0066 16.9356 7.3183 16.7766 7.3183 16.5042C7.3183 16.4229 7.00954 15.9793 6.49473 15.3208C5.92424 14.5912 5.6934 14.2554 5.74341 14.2279C5.78316 14.206 6.08357 14.1189 6.41104 14.0343C7.54364 13.7416 7.54409 13.7548 6.34792 12.2097C5.07742 10.5686 5.06013 10.5525 4.77928 10.7492ZM24.5774 10.7043C24.5423 10.7272 24.0511 11.3405 23.4859 12.0671C22.1594 13.7721 22.1624 13.7381 23.3087 14.0343C23.6362 14.1189 23.9366 14.206 23.9763 14.2279C24.0264 14.2554 23.7955 14.5912 23.225 15.3208C22.6718 16.0284 22.4014 16.4201 22.4014 16.514C22.4014 16.7772 22.7173 16.9323 22.9242 16.7708C23.0495 16.673 24.8979 14.2911 24.9687 14.1364C25.0115 14.0426 25.0035 13.977 24.937 13.8754C24.8659 13.7668 24.7084 13.703 24.1493 13.556C23.765 13.4551 23.4342 13.3555 23.4145 13.335C23.3946 13.3145 23.7582 12.8134 24.2225 12.2215C25.1186 11.0789 25.1931 10.9262 24.9405 10.7492C24.8043 10.6539 24.6786 10.6383 24.5774 10.7043ZM0.494298 13.373C0.305248 13.5819 0.376581 13.7206 1.25147 14.8445C1.76842 15.5086 2.0744 15.9472 2.03108 15.9621C1.99189 15.9757 1.66937 16.0634 1.31435 16.157C0.667073 16.3279 0.457157 16.4391 0.457157 16.6115C0.457157 16.7052 2.37294 19.2485 2.54192 19.3791C2.59233 19.4181 2.67971 19.45 2.73614 19.45C2.87438 19.45 3.06553 19.2506 3.06553 19.1064C3.06553 19.0423 2.69513 18.5145 2.24241 17.9336C1.78969 17.3528 1.43881 16.8601 1.46274 16.8389C1.48661 16.8177 1.81237 16.7195 2.18661 16.6206C2.87936 16.4375 3.00882 16.3596 3.00882 16.1256C3.00882 16.0086 1.44573 13.9249 1.0044 13.4537C0.810761 13.2469 0.633845 13.2189 0.494298 13.373ZM28.8322 13.3127C28.7981 13.3356 28.307 13.9493 27.7406 14.6764C27.1041 15.4937 26.7109 16.047 26.7109 16.1257C26.7109 16.3596 26.8405 16.4375 27.5331 16.6206C27.9074 16.7195 28.2332 16.8177 28.2571 16.8389C28.281 16.8601 27.9301 17.3528 27.4774 17.9336C27.0246 18.5145 26.6542 19.0423 26.6542 19.1064C26.6542 19.2506 26.8454 19.45 26.9836 19.45C27.04 19.45 27.1274 19.4181 27.1778 19.3791C27.3045 19.2811 29.1484 16.9054 29.2203 16.7475C29.288 16.5991 29.1646 16.3601 28.9948 16.3104C28.9393 16.2943 28.6388 16.2142 28.327 16.1327C28.0151 16.0512 27.7279 15.9739 27.6887 15.9611C27.6458 15.9469 27.9573 15.5009 28.4683 14.8445C29.3533 13.7077 29.4294 13.5566 29.2156 13.3632C29.1067 13.2647 28.9367 13.2423 28.8322 13.3127ZM13.0245 16.3326L12.7508 17.3545L12.8457 18.1889C12.9001 18.6665 12.9691 19.0414 13.0072 19.0653C13.409 19.3183 15.4689 19.4042 16.2775 19.2018C16.5114 19.1432 16.7201 19.0794 16.7414 19.06C16.7626 19.0406 16.8223 18.6515 16.8738 18.1954L16.9677 17.366L16.7 16.3525C16.5528 15.7951 16.4294 15.3352 16.4258 15.3307C16.4222 15.326 16.2278 15.3739 15.9939 15.4367C15.3787 15.602 14.3638 15.6008 13.7677 15.4339C13.5256 15.3661 13.321 15.3107 13.3129 15.3107C13.3049 15.3107 13.1751 15.7705 13.0245 16.3326ZM11.0705 18.1174C10.5613 18.2834 10.1345 18.4294 10.1222 18.4418C10.1097 18.4542 10.3669 18.9419 10.6936 19.5255C11.0202 20.1091 11.2875 20.6361 11.2875 20.6966C11.2875 20.7571 11.1002 21.0318 10.8711 21.307L10.4547 21.8074L11.7899 24.4257C12.5242 25.8659 13.129 27.0388 13.1339 27.032C13.1388 27.0254 12.9119 24.9468 12.6298 22.4128C12.3043 19.4899 12.0947 17.8074 12.0566 17.8106C12.0235 17.8133 11.5798 17.9514 11.0705 18.1174ZM17.09 22.4128C16.8079 24.9468 16.581 27.0254 16.5859 27.032C16.5907 27.0388 17.1956 25.8659 17.9299 24.4257L19.2651 21.8074L18.8487 21.307C18.6196 21.0318 18.4323 20.756 18.4323 20.6943C18.4323 20.6326 18.6582 20.1806 18.9344 19.69C19.2106 19.1993 19.4788 18.7159 19.5303 18.6155L19.624 18.4331L18.6439 18.1193C18.1049 17.9468 17.6501 17.8056 17.6334 17.8056C17.6167 17.8056 17.3721 19.8789 17.09 22.4128ZM7.82863 18.6387C5.80765 18.9785 4.13082 20.588 3.72221 22.5805C3.64764 22.944 3.63256 23.4855 3.63256 25.7985V28.5793H8.37338C12.865 28.5793 13.1122 28.574 13.0765 28.4801C13.0558 28.4255 12.2861 26.9016 11.3663 25.0936C10.2354 22.8707 9.70351 21.7691 9.72374 21.6914C9.74009 21.6281 9.93122 21.3684 10.1486 21.1143L10.5435 20.6522L9.97264 19.6258L9.4017 18.5994L8.68605 18.6072C8.29241 18.6114 7.9066 18.6256 7.82863 18.6387ZM19.7467 19.6267L19.1753 20.6539L19.5111 21.044C19.9592 21.5647 20.0365 21.6901 19.9931 21.8268C19.9731 21.8896 19.2198 23.3899 18.3189 25.1609C17.4182 26.9319 16.6641 28.4255 16.6433 28.4801C16.6076 28.574 16.8548 28.5793 21.3492 28.5793H26.0928L26.0734 25.6165C26.0547 22.742 26.0503 22.6414 25.9276 22.2386C25.6571 21.3512 25.1607 20.5574 24.4819 19.9266C23.509 19.0226 22.3967 18.5994 20.9936 18.5994H20.3181L19.7467 19.6267ZM13.0452 19.8834C13.0449 20.0144 13.941 28.1416 13.9835 28.395L14.0145 28.5793H14.8598H15.7053L15.7362 28.395C15.7766 28.155 16.6748 20.018 16.6745 19.8946C16.6743 19.8083 16.6472 19.8073 16.3483 19.8822C15.8066 20.018 14.4131 20.0486 13.7695 19.9389C13.4677 19.8875 13.1813 19.8303 13.133 19.8117C13.0734 19.7889 13.0453 19.8117 13.0452 19.8834Z" fill="#0D9488"/>
</g>
</g>
</g>
</g>
<defs>
<clipPath id="clip0_224_357">
<rect width="30" height="30" fill="white"/>
</clipPath>
</defs>
</svg>
