<svg width="34" height="35" viewBox="0 0 34 35" fill="none" xmlns="http://www.w3.org/2000/svg">
<g id="Frame">
<path id="Vector" d="M11.3333 4.42773C7.42192 4.42773 4.25 7.59965 4.25 11.5111V22.8444C4.25 26.7558 7.42192 29.9277 11.3333 29.9277H22.6667C26.5781 29.9277 29.75 26.7558 29.75 22.8444V11.5111C29.75 7.59965 26.5781 4.42773 22.6667 4.42773H11.3333ZM25.5 7.26107C26.282 7.26107 26.9167 7.89573 26.9167 8.67773C26.9167 9.45973 26.282 10.0944 25.5 10.0944C24.718 10.0944 24.0833 9.45973 24.0833 8.67773C24.0833 7.89573 24.718 7.26107 25.5 7.26107ZM17 10.0944C20.9114 10.0944 24.0833 13.2663 24.0833 17.1777C24.0833 21.0892 20.9114 24.2611 17 24.2611C13.0886 24.2611 9.91667 21.0892 9.91667 17.1777C9.91667 13.2663 13.0886 10.0944 17 10.0944ZM17 12.9277C15.8728 12.9277 14.7918 13.3755 13.9948 14.1725C13.1978 14.9696 12.75 16.0506 12.75 17.1777C12.75 18.3049 13.1978 19.3859 13.9948 20.1829C14.7918 20.98 15.8728 21.4277 17 21.4277C18.1272 21.4277 19.2082 20.98 20.0052 20.1829C20.8022 19.3859 21.25 18.3049 21.25 17.1777C21.25 16.0506 20.8022 14.9696 20.0052 14.1725C19.2082 13.3755 18.1272 12.9277 17 12.9277Z" fill="#ECFDF5"/>
</g>
</svg>
