<svg width="33" height="35" viewBox="0 0 33 35" fill="none" xmlns="http://www.w3.org/2000/svg">
<g id="Frame">
<path id="Vector" d="M26.125 4.42773H6.875C5.35562 4.42773 4.125 5.69565 4.125 7.26107V27.0944C4.125 28.6598 5.35562 29.9277 6.875 29.9277H26.125C27.6444 29.9277 28.875 28.6598 28.875 27.0944V7.26107C28.875 5.69565 27.6444 4.42773 26.125 4.42773ZM12.375 24.2611H8.90588V14.3444H12.375V24.2611ZM10.5792 12.5268C9.51912 12.5268 8.811 11.7987 8.811 10.8268C8.811 9.85498 9.51775 9.12682 10.6961 9.12682C11.7562 9.12682 12.4644 9.85498 12.4644 10.8268C12.4644 11.7987 11.7576 12.5268 10.5792 12.5268ZM24.75 24.2611H21.3923V18.8409C21.3923 17.3421 20.4971 16.9964 20.1616 16.9964C19.8261 16.9964 18.7069 17.2273 18.7069 18.8409C18.7069 19.0718 18.7069 24.2611 18.7069 24.2611H15.2378V14.3444H18.7069V15.7285C19.1537 14.921 20.0489 14.3444 21.7278 14.3444C23.4066 14.3444 24.75 15.7285 24.75 18.8409V24.2611Z" fill="#ECFDF5"/>
</g>
</svg>
